<?xml version="1.0" encoding="UTF-8" standalone="no"?>
<!-- Created with Inkscape (http://www.inkscape.org/) -->

<svg
   width="512"
   height="512"
   viewBox="0 0 135.46666 135.46667"
   version="1.1"
   id="svg5"
   xml:space="preserve"
   inkscape:version="1.2.2 (b0a8486541, 2022-12-01)"
   sodipodi:docname="logo.svg"
   xmlns:inkscape="http://www.inkscape.org/namespaces/inkscape"
   xmlns:sodipodi="http://sodipodi.sourceforge.net/DTD/sodipodi-0.dtd"
   xmlns="http://www.w3.org/2000/svg"
   xmlns:svg="http://www.w3.org/2000/svg"
   xmlns:rdf="http://www.w3.org/1999/02/22-rdf-syntax-ns#"
   xmlns:cc="http://creativecommons.org/ns#"><sodipodi:namedview
     id="namedview7"
     pagecolor="#ffffff"
     bordercolor="#000000"
     borderopacity="0.25"
     inkscape:showpageshadow="2"
     inkscape:pageopacity="0.0"
     inkscape:pagecheckerboard="0"
     inkscape:deskcolor="#d1d1d1"
     inkscape:document-units="px"
     showgrid="false"
     inkscape:lockguides="false"
     inkscape:zoom="1.5785607"
     inkscape:cx="146.01909"
     inkscape:cy="263.21446"
     inkscape:window-width="2560"
     inkscape:window-height="1375"
     inkscape:window-x="0"
     inkscape:window-y="36"
     inkscape:window-maximized="1"
     inkscape:current-layer="g4776"
     showguides="false" /><defs
     id="defs2" /><g
     inkscape:label="default"
     inkscape:groupmode="layer"
     id="layer1"><g
       id="g4776"
       transform="matrix(1.1428572,0,0,1.1428572,5.7452375,5.7452375)"><path
         d="m 94.798763,45.472577 -7.427226,-1.648073 c -0.578794,-1.852078 -1.336985,-3.62458 -2.206599,-5.328986 l 4.018065,-6.694991 c 1.500487,-2.397579 2.258678,-5.925221 0,-8.18534 L 85.088165,19.52324 c -2.258686,-2.260121 -6.072709,-1.853531 -8.376233,-0.256109 l -6.514136,4.149735 c -1.690123,-0.876847 -3.456835,-1.627809 -5.29299,-2.221054 L 63.238019,13.678959 C 62.740257,10.922628 60.329659,7.9374999 57.133383,7.9374999 h -5.787774 c -3.196294,0 -5.155438,3.0298921 -5.787756,5.7877611 l -1.856422,7.427143 c -1.960604,0.625078 -3.843075,1.42379 -5.63728,2.370089 l -6.677628,-4.252557 c -2.302084,-1.597424 -6.117665,-2.004013 -8.376338,0.256107 l -4.093394,4.091947 c -2.26012,2.261567 -1.501924,5.787761 0,8.18534 l 4.227959,7.046599 c -0.792832,1.597422 -1.496135,3.249826 -2.038738,4.976037 l -7.425697,1.648055 c -2.757867,0.4963 -5.7428151,2.906898 -5.7428151,6.103192 v 5.787756 c 0,3.196295 3.0298921,5.155456 5.7877611,5.787774 l 7.519748,1.879575 c 0.519542,1.594529 1.169126,3.12539 1.904173,4.609942 l -4.2323,7.05384 c -1.500387,2.396123 -2.258584,5.923773 0,8.183898 l 4.094841,4.091951 c 2.258674,2.261548 6.072807,1.853513 8.376336,0.257453 l 6.692099,-4.264133 c 1.804333,0.952085 3.696925,1.758027 5.67056,2.381755 l 1.851981,7.406888 c 0.633762,2.757868 2.591479,5.787748 5.787774,5.787748 h 5.787756 c 3.196294,0 5.606892,-2.98495 6.104636,-5.742888 l 1.669766,-7.537028 c 1.817368,-0.587457 3.560926,-1.328384 5.230692,-2.193644 l 6.528609,4.15995 c 2.303524,1.597412 6.119107,2.004007 8.376319,-0.257566 l 4.094935,-4.091926 c 2.258677,-2.261573 1.500469,-5.787783 0,-8.183906 l -4.020953,-6.703677 c 0.808829,-1.588736 1.509149,-3.24114 2.072024,-4.960119 l 7.519656,-1.878113 c 2.75787,-0.633762 5.787747,-2.591479 5.787747,-5.787774 v -5.787756 c 0,-3.196294 -2.983587,-5.606892 -5.742897,-6.104636 z m -0.0421,11.484358 c -0.24597,0.176532 -0.70918,0.419163 -1.296629,0.555181 l -10.730512,2.679636 -0.995489,3.041472 c -0.449898,1.370336 -1.03158,2.760849 -1.729013,4.133908 l -1.452717,2.854908 5.669095,9.452845 c 0.361749,0.578777 0.531043,1.096692 0.581682,1.402013 l -3.806903,3.801201 c -0.367515,-0.115681 -0.785695,-0.266332 -0.986804,-0.403708 l -9.526661,-6.07569 -2.961887,1.532397 c -1.426676,0.740831 -2.891072,1.35433 -4.349583,1.826037 l -3.154336,1.0201 -2.384557,10.772457 c -0.110013,0.57589 -0.418158,1.04035 -0.629413,1.20676 h -5.208981 c -0.176533,-0.246 -0.418086,-0.70902 -0.552733,-1.29503 L 48.577485,82.80761 45.494146,81.829391 c -1.588827,-0.500633 -3.173141,-1.167677 -4.715574,-1.980859 l -2.976356,-1.571373 -9.528102,6.072802 c -0.389227,0.26334 -0.805946,0.412388 -1.183597,0.412388 l -3.795284,-3.693966 c 0.05064,-0.299416 0.208359,-0.794275 0.523793,-1.299252 l 5.919432,-9.862347 -1.407873,-2.834567 C 27.673674,65.73525 27.152775,64.480755 26.747633,63.237829 L 25.753602,60.19347 15.128629,57.536805 c -0.668485,-0.151862 -1.151763,-0.400816 -1.40353,-0.578774 v -5.381183 c 0.0029,0.0014 0.0073,0.0036 0.01315,0.0036 0.09695,0 0.572988,-0.338665 0.969451,-0.410922 l 10.917163,-2.417884 1.002639,-3.190501 c 0.408037,-1.299358 0.965109,-2.653696 1.701601,-4.139613 l 1.407875,-2.835844 -5.857124,-9.759609 c -0.363182,-0.581671 -0.531026,-1.099676 -0.581669,-1.403533 l 3.805452,-3.804095 c 0.36897,0.118657 0.784242,0.267684 0.983919,0.405141 l 9.704627,6.18567 2.973463,-1.568482 c 1.526517,-0.80441 3.105128,-1.468555 4.693864,-1.973536 l 3.076213,-0.979579 2.639121,-10.559679 c 0.153506,-0.668397 0.399354,-1.151675 0.578773,-1.403532 h 5.379904 c -0.03911,0.05941 0.332799,0.564306 0.409387,0.982562 l 2.430865,10.979382 3.15143,1.018647 c 1.477334,0.477491 2.961887,1.099674 4.405943,1.849189 l 2.961886,1.538098 9.328423,-5.942583 c 0.390667,-0.266328 0.808847,-0.413826 1.183602,-0.413826 l 3.798198,3.691144 c -0.05064,0.300965 -0.209788,0.797265 -0.525225,1.303693 l -5.728432,9.539677 1.461415,2.859153 c 0.788583,1.542441 1.390495,2.989381 1.837601,4.424738 l 0.999833,3.196294 10.697328,2.374433 c 0.646868,0.120064 1.150408,0.493414 1.257478,0.695968 z M 54.278476,36.846822 c -9.610576,0 -17.429845,7.803345 -17.429845,17.392228 0,9.587421 7.819269,17.39077 17.429845,17.39077 9.610575,0 17.429841,-7.803349 17.429841,-17.39077 0,-9.588883 -7.819266,-17.392228 -17.429841,-17.392228 z m -0.03911,28.96774 c -6.382464,0 -11.575529,-5.193065 -11.575529,-11.575512 0,-6.383909 5.193065,-11.57553 11.575529,-11.57553 6.38389,0 11.575511,5.191621 11.575511,11.57553 0,6.382447 -5.193065,11.575512 -11.575511,11.575512 z"
         id="path255"
         style="stroke-width:0;stroke-dasharray:none" /><path
         style="fill:#ea6f5a;fill-opacity:1;stroke-width:0;stroke-dasharray:none"
         d="m 47.629492,61.763668 v -8.97268 h 1.645205 v 4.196398 c 0,3.602331 0.0626,4.216974 -0.07505,4.43241 -0.08921,0.139614 -0.32534,0.226213 -0.6239,0.263611 -0.312787,0.03825 -0.627892,0.06243 -0.946306,0.0802 z m 10.999013,-0.127756 c -0.494593,0.01793 -0.970065,0.01181 -1.056627,-0.01351 -0.08648,-0.02589 -0.199428,-0.197277 -0.250837,-0.380915 -0.05134,-0.183638 -0.106426,-0.451683 -0.106768,-0.557954 -1.53e-4,-0.263815 0.0759,-0.21129 0.892424,-0.200543 0.784966,0.01005 0.898837,-0.06108 1.051103,-0.24757 0.161014,-0.197228 0.170891,-0.434897 0.170891,-4.098521 v -3.889213 h -3.873339 c -3.200724,0 -3.919903,0.0318 -4.007302,-0.07277 -0.05816,-0.06954 -0.102351,-0.38848 -0.132874,-0.643122 l -0.05527,-0.463004 h 4.860153 4.860154 l -0.02609,4.609194 -0.02609,4.609195 -0.275021,0.44119 c -0.189415,0.303887 -0.407365,0.508779 -0.700264,0.65832 -0.34347,0.175362 -0.598127,0.223404 -1.324487,0.249852 z m -5.217694,-1.65545 -2.351472,-0.07157 -0.03667,-3.289257 -0.02149,-3.262369 c 2.171489,0.02115 4.343046,0.02352 6.514603,0.02707 l -0.03087,2.557973 c -0.02865,2.368612 -0.04248,2.537648 -0.227126,2.879065 -0.107978,0.199495 -0.314219,0.527868 -0.4329,0.637692 -1.065702,0.73176 -2.673603,0.50854 -3.414035,0.521554 z m 2.368988,-1.445329 c 0.252046,-0.489961 0.167155,-0.804425 0.167155,-1.391483 h -3.290425 v 1.541547 c 0.662295,-0.08225 2.717371,0.189984 3.12327,-0.150098 z m 0.167155,-2.570307 c 0,-0.515243 0.0068,-0.956029 0.0068,-1.471271 -1.081583,0.01692 -2.170533,-0.0034 -3.252115,0.01181 -0.01774,0.498725 -0.03547,0.959954 -0.05305,1.45868 1.099287,1.7e-5 2.198557,1.7e-5 3.297828,1.7e-5 z m -5.811099,-3.106618 -0.724039,0.0017 c -0.249864,-0.966046 -0.758683,-1.748894 -1.128166,-2.567482 0.509826,-0.02842 0.973393,0.03469 1.522874,-0.01523 0.380979,0.560425 1.29503,1.880631 1.210258,2.321079 -0.05374,0.168036 -0.206607,0.2584 -0.880927,0.260363 z m -3.036298,-2.113885 -0.384065,0.134367 c 0.0013,-0.375146 0.0017,-0.750307 0.0034,-1.125453 1.100925,-0.600428 2.046173,-1.630033 2.323003,-2.743029 l 0.0643,-0.294716 0.609691,0.0013 c 0.335335,6.94e-4 0.926981,-0.0017 1.044758,0.02928 0.02268,0.133344 -0.09433,0.518053 -0.165963,0.808316 l -0.06192,0.249363 h 4.066301 c -0.07778,0.296221 -0.04879,0.70164 -0.238128,0.951849 -0.02217,0.249837 -2.052587,0.07903 -2.144063,0.158898 0.04742,0.395756 0.28703,1.10061 0.282442,1.516316 -0.596608,0.05229 -0.850548,0.02115 -1.411799,0.03808 -0.108987,-0.448655 -0.136628,-0.944166 -0.310364,-1.372937 -0.110523,-0.266133 -0.151464,-0.186836 -0.496368,-0.186836 -0.344051,0 -0.451645,-0.05026 -1.010609,0.472971 -0.341357,0.319471 -0.883025,0.726429 -1.203709,0.904348 -0.320699,0.177919 -0.755901,0.383996 -0.967149,0.457945 z m 7.237517,-0.03452 -0.400935,0.170507 c 0.03446,-0.392541 -0.04572,-0.797874 0.04572,-1.21084 0.925992,-0.599548 1.625897,-1.38573 1.947689,-2.432309 l 0.154363,-0.521403 c 0.456676,0.06785 1.166694,-0.04906 1.616429,0.08242 0.231682,0.328948 -0.108986,0.531234 -0.199717,0.925873 1.539316,0.05551 2.649009,-0.0083 4.263049,0.03926 l -0.0597,0.501673 c -0.03274,0.253711 -0.09706,0.533603 -0.168178,0.57836 -0.4591,0.128097 -2.503087,-0.08156 -2.066591,0.24378 0.110522,0.371219 0.376339,0.773913 0.267261,1.175846 -0.04707,0.147391 -0.149587,0.170338 -0.756703,0.16988 l -0.702207,-5.47e-4 -0.365593,-1.49513 c -0.387989,-0.01811 -0.775978,-0.03638 -1.163968,-0.05449 -0.657994,0.782389 -1.471548,1.422129 -2.411032,1.827191 z"
         id="path1775"
         sodipodi:nodetypes="cccssccccscssscssscccccssccccccsscccccccccccccccccsccccscccccccccccccsccccccccsccccccccssccc" /></g></g><metadata
     id="metadata9"><rdf:RDF><cc:Work
         rdf:about="" /></rdf:RDF></metadata></svg>
