<svg width="512" height="512" viewBox="0 0 135.467 135.467" xml:space="preserve" xmlns="http://www.w3.org/2000/svg"><path d="m94.799 45.473-7.427-1.648c-.58-1.853-1.337-3.625-2.207-5.33l4.018-6.694c1.5-2.398 2.259-5.926 0-8.186l-4.095-4.092c-2.259-2.26-6.073-1.853-8.376-.256l-6.514 4.15a34.595 34.595 0 0 0-5.293-2.221l-1.667-7.517c-.498-2.756-2.908-5.742-6.105-5.742h-5.787c-3.197 0-5.156 3.03-5.788 5.788L43.7 21.152a34.635 34.635 0 0 0-5.637 2.37l-6.677-4.252c-2.303-1.597-6.118-2.004-8.377.256l-4.093 4.092c-2.26 2.262-1.502 5.788 0 8.185l4.228 7.047c-.793 1.597-1.496 3.25-2.039 4.976l-7.426 1.648c-2.758.496-5.743 2.907-5.743 6.103v5.788c0 3.196 3.03 5.155 5.788 5.788l7.52 1.88a34.43 34.43 0 0 0 1.904 4.61l-4.232 7.053c-1.5 2.396-2.259 5.924 0 8.184l4.095 4.092c2.258 2.261 6.073 1.853 8.376.257l6.692-4.264a34.305 34.305 0 0 0 5.67 2.382l1.853 7.407c.633 2.758 2.591 5.788 5.787 5.788h5.788c3.197 0 5.607-2.985 6.105-5.743l1.67-7.537a34.29 34.29 0 0 0 5.23-2.194l6.529 4.16c2.303 1.597 6.119 2.004 8.376-.258l4.095-4.091c2.259-2.262 1.5-5.788 0-8.184l-4.02-6.704a34.805 34.805 0 0 0 2.071-4.96l7.52-1.878c2.758-.634 5.788-2.592 5.788-5.788v-5.788c0-3.196-2.984-5.607-5.743-6.104zm-.042 11.484c-.246.176-.71.42-1.297.555l-10.73 2.68-.996 3.041a29.478 29.478 0 0 1-1.729 4.134l-1.453 2.855 5.67 9.453c.361.579.53 1.097.581 1.402l-3.807 3.801c-.367-.116-.786-.266-.987-.404L70.483 78.4 67.52 79.93a28.524 28.524 0 0 1-4.35 1.826l-3.154 1.02-2.385 10.773c-.11.576-.418 1.04-.63 1.206h-5.208c-.177-.246-.418-.709-.553-1.295l-2.664-10.653-3.083-.979a28.54 28.54 0 0 1-4.715-1.98l-2.977-1.572-9.528 6.073c-.39.263-.806.412-1.183.412l-3.796-3.694c.05-.299.209-.794.524-1.299l5.92-9.862-1.408-2.835a29.147 29.147 0 0 1-1.583-3.834l-.994-3.045-10.625-2.656c-.669-.152-1.152-.401-1.404-.579v-5.381c.003.001.007.003.013.003.097 0 .573-.338.97-.41l10.917-2.418 1.003-3.19c.408-1.3.965-2.655 1.701-4.14l1.408-2.836-5.857-9.76c-.363-.582-.531-1.1-.582-1.403l3.806-3.805c.369.12.784.268.984.406l9.704 6.185 2.974-1.568a28.849 28.849 0 0 1 4.694-1.974l3.076-.98 2.639-10.559c.153-.668.4-1.152.579-1.404h5.38c-.04.06.332.565.409.983l2.43 10.98 3.152 1.018c1.478.478 2.962 1.1 4.406 1.85l2.962 1.537 9.328-5.942c.391-.267.81-.414 1.184-.414l3.798 3.691c-.05.301-.21.797-.525 1.304l-5.728 9.54 1.461 2.859c.789 1.542 1.39 2.989 1.838 4.424l1 3.197 10.697 2.374c.647.12 1.15.493 1.257.696zm-40.479-20.11c-9.61 0-17.43 7.803-17.43 17.392 0 9.587 7.82 17.39 17.43 17.39 9.611 0 17.43-7.803 17.43-17.39 0-9.589-7.819-17.392-17.43-17.392zm-.039 28.968c-6.382 0-11.575-5.194-11.575-11.576 0-6.384 5.193-11.575 11.575-11.575 6.384 0 11.576 5.191 11.576 11.575 0 6.382-5.193 11.576-11.576 11.576z" style="stroke-width:0;stroke-dasharray:none" transform="matrix(1.14286 0 0 1.14286 5.745 5.745)"/><path style="fill:#ea6f5a;fill-opacity:1;stroke-width:0;stroke-dasharray:none" d="M47.63 61.764V52.79h1.645v4.196c0 3.603.062 4.217-.075 4.433-.09.14-.326.226-.624.263-.313.039-.628.063-.947.08zm10.999-.128c-.495.018-.97.012-1.057-.014-.087-.025-.2-.197-.251-.38a2.994 2.994 0 0 1-.107-.558c0-.264.076-.212.893-.201.785.01.899-.061 1.05-.248.162-.197.172-.434.172-4.098v-3.89h-3.874c-3.2 0-3.92.032-4.007-.072-.058-.07-.102-.389-.133-.643l-.055-.463h9.72l-.026 4.609-.026 4.61-.275.44c-.19.304-.407.51-.7.659-.344.175-.598.223-1.325.25zM53.41 59.98l-2.352-.071-.036-3.29L51 53.358c2.172.021 4.343.024 6.515.027l-.031 2.558c-.029 2.369-.043 2.538-.227 2.88-.108.199-.314.527-.433.637-1.066.732-2.674.509-3.414.522zm2.369-1.445c.252-.49.167-.804.167-1.391h-3.29v1.541c.662-.082 2.717.19 3.123-.15zm.167-2.57c0-.515.007-.956.007-1.471-1.082.016-2.17-.004-3.252.011-.018.5-.036.96-.053 1.459h3.297zm-5.811-3.107-.724.002c-.25-.966-.759-1.749-1.128-2.568.51-.028.973.035 1.523-.015.38.56 1.295 1.88 1.21 2.321-.054.168-.207.259-.881.26zM47.1 50.744l-.385.135.004-1.126c1.1-.6 2.046-1.63 2.323-2.743l.064-.295.61.002c.335 0 .927-.002 1.045.03.022.132-.095.517-.166.807l-.062.25h4.066c-.078.296-.049.701-.238.952-.022.25-2.053.079-2.144.158.047.396.287 1.101.282 1.517-.596.052-.85.021-1.411.038-.11-.449-.137-.944-.31-1.373-.111-.266-.152-.187-.497-.187-.344 0-.452-.05-1.01.473-.342.32-.884.727-1.205.904-.32.178-.755.384-.967.458zm7.237-.034-.4.17c.034-.392-.047-.798.045-1.21.926-.6 1.626-1.386 1.948-2.433l.154-.521c.457.068 1.167-.05 1.616.082.232.33-.109.531-.2.926 1.54.056 2.65-.008 4.264.04l-.06.501c-.033.254-.097.534-.168.578-.46.128-2.503-.081-2.067.244.11.371.377.774.267 1.176-.047.147-.15.17-.756.17h-.702l-.366-1.496-1.164-.054c-.658.782-1.472 1.422-2.411 1.827z" transform="matrix(1.14286 0 0 1.14286 5.745 5.745)"/></svg>